HIERARCHY
ROOT Hips
{
	OFFSET 0.000000 0.000000 0.000000
	CHANNELS 6 Xposition Yposition Zposition Zrotation Yrotation Xrotation 
	JOINT LHipJoint
	{
		OFFSET 0.000000 0.000000 0.000000
		CHANNELS 3 Zrotation Yrotation Xrotation
		JOINT LeftUpLeg
		{
			OFFSET 1.363060 -1.794630 0.839290
			CHANNELS 3 Zrotation Yrotation Xrotation
			JOINT LeftLeg
			{
				OFFSET 2.448110 -6.726130 0.000000
				CHANNELS 3 Zrotation Yrotation Xrotation
				JOINT LeftFoot
				{
					OFFSET 2.562200 -7.039590 0.000000
					CHANNELS 3 Zrotation Yrotation Xrotation
					JOINT LeftToeBase
					{
						OFFSET 0.157640 -0.433110 2.322550
						CHANNELS 3 Zrotation Yrotation Xrotation
						End Site
						{
							OFFSET 0.000000 0.000000 0.000000
						}
					}
				}
			}
		}
	}
	JOINT RHipJoint
	{
		OFFSET 0.000000 0.000000 0.000000
		CHANNELS 3 Zrotation Yrotation Xrotation
		JOINT RightUpLeg
		{
			OFFSET -1.305520 -1.794630 0.839290
			CHANNELS 3 Zrotation Yrotation Xrotation
			JOINT RightLeg
			{
				OFFSET -2.542530 -6.985550 0.000000
				CHANNELS 3 Zrotation Yrotation Xrotation
				JOINT RightFoot
				{
					OFFSET -2.568260 -7.056230 0.000000
					CHANNELS 3 Zrotation Yrotation Xrotation
					JOINT RightToeBase
					{
						OFFSET -0.164730 -0.452590 2.363150
						CHANNELS 3 Zrotation Yrotation Xrotation
						End Site
						{
							OFFSET 0.000000 0.000000 0.000000
						}
					}
				}
			}
		}
	}
}
MOTION
Frames: 33
Frame Time: 0.008333
-11.072494 16.999121 -0.812027 131.583921 87.578102 144.472427 -10.054906 5.670429 0.264221 -5.159261 10.416722 -1.505988 -1.471370 1.888888 25.770788 0.261385 -4.243214 13.800779 -1.506400 0.000000 -80.308900 9.309792 -0.136736 5.177633 12.756327 9.957707 -32.981296 2.678588 0.554821 10.874130 -0.835870 -3.634987 -2.279586 -1.054900 0.000001 -28.184100
-10.854160 17.001503 -0.792606 132.934731 88.095020 145.814026 -10.257364 5.632010 0.182261 -4.369431 11.027385 -3.185352 -1.207768 2.071516 29.357667 0.410795 -3.973138 15.295840 -1.603500 0.000000 -78.125600 9.163224 -0.269883 5.248434 13.465148 10.450444 -32.561888 2.695931 0.449236 11.864208 -0.879402 -3.764883 -2.589179 -1.038900 -0.000000 -24.339100
-10.638325 17.003625 -0.773737 135.021784 88.647000 147.917156 -10.465398 5.556848 0.098603 -3.612169 11.660192 -4.987738 -0.955547 2.231236 32.953699 0.583473 -3.218074 16.479041 -1.495000 0.000000 -74.655800 8.993737 -0.399256 5.310722 14.265768 10.832288 -32.159840 2.748871 0.365098 12.783345 -0.902813 -3.743278 -3.076490 -0.981700 -0.000000 -20.304500
-10.425259 17.005561 -0.754739 137.953983 89.214839 150.886384 -10.675528 5.448551 0.015239 -2.923151 12.283215 -6.878132 -0.725435 2.376344 36.490747 0.772808 -1.946455 17.257017 -1.140800 -0.000000 -70.079200 8.803202 -0.522209 5.360013 15.120362 11.101019 -31.752693 2.833188 0.303302 13.612190 -0.903735 -3.561055 -3.722019 -0.886800 0.000000 -16.230600
-10.214766 17.007399 -0.735505 142.264032 89.787048 155.255409 -10.905978 5.311054 -0.063814 -2.310321 12.881970 -8.843811 -0.524361 2.516382 39.911850 0.973191 -0.209891 17.558838 -0.555100 0.000000 -64.705101 8.572924 -0.640167 5.398879 16.001772 11.288417 -31.313370 2.946271 0.268841 14.319202 -0.885827 -3.239707 -4.503307 -0.764900 -0.000000 -12.025500
-10.006842 17.009362 -0.715056 -31.835629 89.679688 -18.769265 -11.169864 5.144038 -0.131518 -1.817872 13.407275 -10.849029 -0.352450 2.655441 43.143998 1.180613 1.902644 17.358886 0.206700 0.000000 -58.919200 8.292669 -0.759593 5.419695 16.853512 11.386491 -30.825434 3.078825 0.259113 14.897364 -0.849110 -2.788449 -5.364188 -0.628301 -0.000000 -7.958700
-9.801053 17.011672 -0.693157 -23.661079 89.250499 -10.501727 -11.508001 4.926847 -0.179897 -1.463616 13.812354 -12.877813 -0.200077 2.786308 46.134608 1.390490 4.240152 16.666182 1.045200 0.000000 -53.111800 7.920705 -0.907859 5.424427 17.630011 11.413495 -30.281884 3.224539 0.271967 15.320868 -0.801003 -2.250189 -6.253394 -0.492601 0.000001 -4.104600
-9.597053 17.014565 -0.669333 -12.901062 89.070015 0.371329 -11.934183 4.597309 -0.206483 -1.258081 14.013497 -14.904564 -0.039392 2.874228 48.848870 1.596277 6.634883 15.525695 1.850000 0.000000 -47.591500 7.434230 -1.141755 5.420828 18.285449 11.365970 -29.703881 3.375326 0.291851 15.557177 -0.752931 -1.682044 -7.125280 -0.370100 0.000001 -0.617900
-9.394301 17.018299 -0.643477 -0.040339 89.326488 13.376380 -12.341082 4.081752 -0.219626 -1.145763 13.914894 -16.911391 0.163535 2.864186 51.282508 1.789473 8.918480 14.001135 2.520600 -0.000000 -42.539600 6.923333 -1.505754 5.436670 18.831917 11.253039 -29.132893 3.521882 0.292324 15.552188 -0.719938 -1.169059 -7.939800 179.731000 -0.000000 -2.396600
-9.192388 17.023032 -0.615475 12.856946 89.966763 26.463014 -12.507180 3.457010 -0.220515 -1.030673 13.508227 -18.909040 0.385698 2.767544 53.413945 1.964256 10.952807 12.169742 2.986201 -0.000000 -38.021300 6.617082 -1.901238 5.495190 19.349232 11.138368 -28.564391 3.651585 0.273498 15.295831 -0.701904 -0.765157 -8.636100 179.807700 -0.000000 -4.846700
-8.990870 17.028963 -0.585478 -156.617069 89.362704 -142.773182 -12.425225 2.909116 -0.182508 -0.909395 12.882138 -20.920802 0.557380 2.675110 55.176529 2.117543 12.645110 10.123329 3.214100 -0.000000 -34.026999 6.559981 -2.177411 5.576581 19.856038 11.103393 -27.937081 3.757488 0.276257 14.857787 -0.685610 -0.457869 -9.159522 179.861300 -0.000000 -6.732500
-8.789428 17.036135 -0.553761 -149.563225 88.872313 -135.434551 -12.266123 2.486982 -0.080559 -0.837454 12.066182 -22.936186 0.658395 2.624765 56.524255 2.244070 13.943414 7.961461 3.210700 0.000001 -30.539900 6.596963 -2.325838 5.656058 20.291901 11.166958 -27.231944 3.839732 0.321889 14.293058 -0.670339 -0.240647 -9.510132 179.895600 0.000001 -8.111300
-8.587854 17.044601 -0.520659 -145.768407 88.566254 -131.310657 -12.126987 2.145388 0.091293 -0.827348 11.036907 -24.923549 0.706266 2.598344 57.448515 2.338661 14.833078 5.776655 3.014700 -0.000000 -27.546000 6.625111 -2.402011 5.727835 20.618982 11.310364 -26.470678 3.899563 0.403813 13.619965 -0.663422 -0.127343 -9.718400 179.914799 0.000000 -9.064699
-8.386179 17.054377 -0.486460 -144.450501 88.398667 -129.628899 -12.021990 1.845538 0.327809 -0.853509 9.782996 -26.844201 0.717841 2.573789 57.951402 2.399674 15.336143 3.653241 2.685500 -0.000000 -25.049500 6.622846 -2.441694 5.789870 20.836566 11.509273 -25.669869 3.938493 0.510566 12.852256 -0.669354 -0.121197 -9.823349 179.923500 0.000000 -9.696500
-8.184332 17.065385 -0.451662 -144.635138 88.319268 -129.419550 -11.935906 1.567154 0.622193 -0.871518 8.316080 -28.677764 0.704068 2.537375 58.045596 2.429799 15.504989 1.662110 2.287500 -0.000000 -23.056800 6.598595 -2.460480 5.845193 20.968955 11.755626 -24.841685 3.959604 0.634760 11.998617 -0.690699 -0.220798 -9.860857 179.925000 -0.000000 -10.140400
-7.982422 17.077489 -0.416639 -145.536613 88.295577 -129.908943 -11.850267 1.301940 0.964253 -0.844482 6.668551 -30.401131 0.672194 2.481870 57.745335 2.435641 15.417414 -0.143164 1.878700 -0.000000 -21.549800 6.567566 -2.464363 5.891258 21.041774 12.030954 -23.986563 3.966631 0.770605 11.075215 -0.725446 -0.402872 -9.866413 179.922400 0.000000 -10.518700
-7.780721 17.090505 -0.381726 -146.428622 88.300781 -130.387905 -11.747226 1.044347 1.339427 -0.742824 4.889269 -31.991876 0.628804 2.402061 57.070907 2.426335 15.163569 -1.731567 1.500800 -0.000000 -20.463200 6.546346 -2.457718 5.923103 21.082296 12.311218 -23.094999 3.963619 0.912588 10.097300 -0.768910 -0.632718 -9.870205 179.919000 -0.000000 -10.943999
-7.579239 17.104150 -0.347255 -146.705714 88.313503 -130.260672 -11.613297 0.790914 1.735542 -0.550883 3.028392 -33.446127 0.580143 2.294276 56.051719 2.412710 14.836197 -3.096731 1.177100 0.000000 -19.657000 6.548413 -2.445392 5.939892 21.114387 12.575047 -22.166127 3.954604 1.056493 9.076733 -0.814975 -0.871988 -9.892030 179.917600 -0.000000 -11.502500
-7.378188 17.118104 -0.313395 -145.592685 88.308448 -128.768541 -11.430783 0.540528 2.135119 -0.261659 1.147673 -34.754865 0.531635 2.155252 54.719620 2.404595 14.514472 -4.252860 0.913700 0.000000 -18.965000 6.594458 -2.430806 5.938318 21.162250 12.795137 -21.190203 3.942750 1.196853 8.025347 -0.855335 -1.076096 -9.941220 179.920700 0.000000 -12.253300
-7.177516 17.131975 -0.280307 -141.989021 88.256074 -124.820398 -11.173162 0.303580 2.524019 0.121794 -0.694666 -35.922301 0.486647 1.984431 53.107077 2.410538 14.259790 -5.223186 0.707301 -0.000000 -18.230100 6.717071 -2.410283 5.919040 21.246541 12.947415 -20.167529 3.930355 1.329092 6.958057 -0.879988 -1.199305 -10.011319 179.929400 0.000000 -13.213000
-6.977210 17.145361 -0.248037 -133.230663 88.100754 -115.763837 -10.779341 0.125538 2.885340 0.606214 -2.417888 -36.955205 0.442315 1.790435 51.242289 2.435905 14.103397 -6.036056 0.549300 0.000000 -17.346700 6.986976 -2.352686 5.883773 21.400954 13.018440 -19.089632 3.920505 1.451599 5.900739 -0.876175 -1.193658 -10.077183 179.943100 -0.000000 -14.358000
-6.777170 17.157852 -0.216569 -112.461486 87.792164 -94.752255 -10.176881 0.174342 3.220128 1.197279 -3.869632 -37.878725 0.367754 1.636958 49.125138 2.487943 14.067604 -6.718083 0.431600 0.000000 -16.287800 7.479806 -2.136010 5.823109 21.656862 13.029852 -17.905953 3.930643 1.588753 4.934307 -0.820553 -0.977308 -10.082035 179.959200 0.000001 -15.620800
-6.577209 17.169054 -0.185877 -72.124028 87.315265 -54.227877 -9.752560 0.606853 3.617432 1.693429 -4.885530 -38.716582 0.191489 1.682092 46.685998 2.579888 14.205025 -7.290140 0.348900 -0.000001 -15.104000 7.753498 -1.665414 5.656254 21.826632 13.002455 -16.486267 4.013717 1.815084 4.213987 -0.684135 -0.397571 -9.984596 179.974400 0.000000 -16.900000
-6.377180 17.178658 -0.155887 -37.889417 86.907500 -19.855663 -10.082319 0.677340 4.066330 1.807583 -5.908644 -39.386873 0.035799 1.692165 44.009380 2.679498 14.419076 -7.719872 0.300100 -0.000000 -13.913900 7.221638 -1.526340 5.377899 21.644778 12.737261 -15.071315 4.118898 2.019583 3.536796 -0.525288 0.401457 -9.915686 179.985400 0.000000 -18.075000
-6.176911 17.186422 -0.126542 -21.954011 86.737828 -3.823887 -10.342366 0.366978 4.404149 1.884122 -6.965987 -39.885630 -0.023329 1.481315 41.231518 2.751618 14.534112 -7.977136 0.288300 0.000000 -12.889100 6.817466 -1.701568 5.138263 21.487807 12.249423 -13.850611 4.174843 2.096602 2.783102 -0.367785 1.243389 -9.826827 179.991100 -0.000000 -19.022200
-5.976325 17.192202 -0.097803 -14.396665 86.478396 3.784630 -10.370598 0.085671 4.657774 1.971779 -7.769557 -40.259160 -0.074159 1.211867 38.304430 2.796551 14.525893 -8.052735 0.318801 0.000000 -12.224600 6.699916 -1.879251 4.922915 21.418157 11.661524 -12.693683 4.214830 2.115531 2.130221 -0.182850 2.212947 -9.630086 179.993000 0.000000 -19.644899
-5.775407 17.196032 -0.069708 -10.375792 86.077150 7.809357 -10.303710 -0.112054 4.853672 1.992494 -8.258981 -40.518563 -0.147233 0.940088 35.216721 2.803032 14.351843 -7.921860 0.395900 0.000000 -12.111600 6.714740 -2.024512 4.708728 21.370425 11.016446 -11.569328 4.253349 2.101731 1.647566 0.025948 3.310195 -9.327718 179.995100 -0.000000 -19.879100
-5.574030 17.197870 -0.042305 -8.124066 85.572999 10.022895 -10.211609 -0.243462 4.997019 1.904231 -8.429552 -40.673821 -0.251183 0.675627 31.995290 2.755378 13.957212 -7.560540 0.518801 -0.000000 -12.706200 6.784732 -2.150995 4.496305 21.317360 10.352610 -10.489045 4.290840 2.059198 1.356611 0.243571 4.481165 -8.946181 -179.998200 -0.000000 -19.694400
-5.372376 17.197992 -0.015634 -6.846293 85.006570 11.216867 -10.124674 -0.326706 5.084340 1.680082 -8.288513 -40.723935 -0.392423 0.421193 28.683855 2.640183 13.297932 -6.961295 0.676200 0.000000 -14.061400 6.876424 -2.268955 4.286359 21.251419 9.692742 -9.456140 4.324826 1.988524 1.267934 0.455935 5.669449 -8.522060 -179.983500 0.000000 -19.132100
-5.170473 17.196587 0.010262 -6.171392 84.408786 11.762967 -10.056088 -0.375877 5.113039 1.307565 -7.851349 -40.681504 -0.575900 0.179763 25.348741 2.449696 12.344817 -6.140300 0.845100 -0.000000 -16.128200 6.972223 -2.382949 4.083037 21.175802 9.063270 -8.474629 4.352910 1.891890 1.385589 0.650408 6.814625 -8.098064 -179.960400 0.000000 -18.267600
-4.968362 17.193936 0.035454 -5.870157 83.803805 11.889155 -10.009920 -0.402948 5.082319 0.782024 -7.148793 -40.562569 -0.803800 -0.045374 22.072813 2.184219 11.088569 -5.142680 0.992401 0.000000 -18.743400 7.062497 -2.494400 3.887808 21.095127 8.477928 -7.543704 4.373228 1.772253 1.709176 0.818306 7.866847 -7.718164 -179.932200 0.000000 -17.218400
-4.766044 17.190371 0.060166 -5.778613 83.211392 11.759122 -9.983843 -0.418049 4.995857 0.110236 -6.232264 -40.387729 -1.073241 -0.251250 18.949000 1.853525 9.543168 -4.039096 1.082200 0.000000 -21.669400 7.142739 -2.602973 3.700020 21.011633 7.938896 -6.661972 4.384449 1.632972 2.234256 0.955058 8.790909 -7.422190 -179.904999 -0.000000 -16.126501
-4.563496 17.186183 0.084738 -5.767774 82.648067 11.504187 -9.971068 -0.428659 4.863625 -0.686407 -5.178491 -40.176479 -1.374628 -0.436087 16.066089 1.476896 7.751910 -2.915277 1.086800 -0.000000 -24.652400 7.212680 -2.707472 3.516602 20.922423 7.436309 -5.829856 4.385608 1.477208 2.952956 1.059950 9.569721 -7.240153 -179.886100 -0.000000 -15.142400
